<?xml version="1.0" encoding="UTF-8" standalone="no"?>
<svg width="70px" height="70px" viewBox="0 0 70 70" version="1.1" xmlns="http://www.w3.org/2000/svg" xmlns:xlink="http://www.w3.org/1999/xlink">
    <!-- Generator: Sketch 3.6.1 (26313) - http://www.bohemiancoding.com/sketch -->
    <title>Group</title>
    <desc>Created with Sketch.</desc>
    <defs></defs>
    <g id="Page-2" stroke="none" stroke-width="1" fill="none" fill-rule="evenodd">
        <g id="App-index" transform="translate(-146.000000, -468.000000)">
            <g id="screen"></g>
            <g id="Options" transform="translate(16.000000, 343.000000)" fill="#00ACB4">
                <g id="Alarms" transform="translate(117.000000, 128.000000)">
                    <g id="Group" transform="translate(18.000000, 0.000000)">
                        <path d="M5.565,18.7322727 C9.08590909,13.3568182 14.5772727,9.39272727 21.0013636,7.83954545 C21.4963636,7.72090909 21.9040909,7.37045455 22.095,6.9 C22.2872727,6.42818182 22.2409091,5.89363636 21.9709091,5.46136364 C19.9145455,2.18318182 16.2763636,0 12.12,0 C5.69454545,0 0.482727273,5.20909091 0.482727273,11.6345455 C0.482727273,14.3618182 1.425,16.8668182 2.99863636,18.8481818 C3.31363636,19.2477273 3.80181818,19.4686364 4.31045455,19.4454545 C4.81909091,19.4222727 5.28681818,19.1563636 5.565,18.7322727 L5.565,18.7322727 Z" id="Shape"></path>
                        <path d="M47.5718182,0 C43.4345455,0 39.8086364,2.16272727 37.7481818,5.41909091 C37.4754545,5.85 37.4277273,6.38863636 37.62,6.86318182 C37.8136364,7.33909091 38.2227273,7.68818182 38.7231818,7.80545455 C45.165,9.32181818 50.6754545,13.2586364 54.2263636,18.6163636 C54.5086364,19.0418182 54.9790909,19.305 55.4904545,19.3227273 C56.0018182,19.3418182 56.4872727,19.1127273 56.8009091,18.7077273 C58.3077273,16.7495455 59.2090909,14.3004545 59.2090909,11.6359091 C59.205,5.20909091 53.9972727,0 47.5718182,0 L47.5718182,0 Z" id="Shape"></path>
                        <path d="M55.5709091,35.6345455 C55.5709091,31.1427273 54.4022727,26.9209091 52.365,23.2472727 C48.5890909,16.4427273 41.8077273,11.5513636 33.8263636,10.3268182 C32.5540909,10.1318182 31.2627273,9.99954545 29.9359091,9.99954545 C28.5504545,9.99954545 27.2004545,10.1413636 25.8736364,10.3540909 C17.9263636,11.6290909 11.1790909,16.5409091 7.44272727,23.3536364 C5.44227273,27.0027273 4.30090909,31.1863636 4.30090909,35.6345455 C4.30090909,43.2518182 7.65954545,50.085 12.9504545,54.7813636 L10.7904545,57.8236364 C9.86045455,59.1340909 10.1686364,60.9477273 11.4790909,61.8804545 C11.9904545,62.2431818 12.5781818,62.4190909 13.1604545,62.4190909 C14.0713636,62.4190909 14.9686364,61.9922727 15.5345455,61.1945455 L17.6931818,58.1536364 C21.3327273,60.1404545 25.5040909,61.2722727 29.9359091,61.2722727 C34.3663636,61.2722727 38.5377273,60.1404545 42.1772727,58.1536364 L44.3359091,61.1945455 C44.9031818,61.9936364 45.7990909,62.4190909 46.71,62.4190909 C47.2922727,62.4190909 47.8786364,62.2431818 48.39,61.8804545 C49.7004545,60.9477273 50.01,59.1340909 49.08,57.8236364 L46.92,54.7813636 C52.2109091,50.085 55.5709091,43.2518182 55.5709091,35.6345455 L55.5709091,35.6345455 Z M29.9372727,54.1009091 C19.7536364,54.1009091 11.4709091,45.8181818 11.4709091,35.6345455 C11.4709091,32.46 12.2768182,29.4722727 13.6922727,26.8595455 C16.3868182,21.8904545 21.3013636,18.3109091 27.0913636,17.4095455 C28.0213636,17.265 28.9663636,17.1668182 29.9372727,17.1668182 C30.8509091,17.1668182 31.7440909,17.2554545 32.6236364,17.385 C38.4627273,18.2413636 43.4304545,21.8209091 46.1563636,26.8118182 C47.5881818,29.4340909 48.4022727,32.4381818 48.4022727,35.6331818 C48.4022727,45.8181818 40.1195455,54.1009091 29.9372727,54.1009091 L29.9372727,54.1009091 Z" id="Shape"></path>
                        <path d="M40.2818182,39.9545455 L33.2372727,35.6045455 C33.0913636,34.7809091 32.6454545,34.0704545 32.0195455,33.5672727 L32.3413636,24.7281818 C32.3809091,23.5990909 31.5,22.6513636 30.3722727,22.6090909 C29.2472727,22.5572727 28.2954545,23.4490909 28.2531818,24.5781818 L27.93,33.4268182 C27.0559091,34.0431818 26.4804545,35.0577273 26.4804545,36.21 C26.4804545,38.0931818 28.0063636,39.6177273 29.8895455,39.6177273 C30.4254545,39.6177273 30.9259091,39.4827273 31.3759091,39.2631818 L38.1327273,43.4386364 C38.4681818,43.6431818 38.8404545,43.7427273 39.2059091,43.7427273 C39.8918182,43.7427273 40.56,43.3990909 40.9486364,42.7731818 C41.5431818,41.8090909 41.2431818,40.5490909 40.2818182,39.9545455 L40.2818182,39.9545455 Z" id="Shape"></path>
                    </g>
                </g>
            </g>
        </g>
    </g>
</svg>