<?xml version="1.0" encoding="UTF-8" standalone="no"?>
<svg width="70px" height="70px" viewBox="0 0 70 70" version="1.1" xmlns="http://www.w3.org/2000/svg" xmlns:xlink="http://www.w3.org/1999/xlink">
    <!-- Generator: Sketch 3.7.1 (28215) - http://www.bohemiancoding.com/sketch -->
    <title>cigarrette</title>
    <desc>Created with Sketch.</desc>
    <defs></defs>
    <g id="Page-1" stroke="none" stroke-width="1" fill="none" fill-rule="evenodd">
        <g id="cigarrette" transform="translate(0.000000, 4.000000)" fill="#00ACB4">
            <g id="Page-1">
                <g id="noun_146">
                    <polygon id="Shape" points="0.363424658 60.5307042 0.363424658 47 58.4931507 47 58.4931507 60.5307042 0.363424658 60.5307042"></polygon>
                    <rect id="Rectangle-path" x="60.4109589" y="47" width="3.83561644" height="13.6904225"></rect>
                    <path d="M69.9472618,44.8053521 L69.9472618,37.2585099 C69.951285,32.7554414 68.4667354,28.2926109 65.8814467,25.0136689 C63.0145361,21.3779508 58.9632044,19.3758916 54.4765657,19.3758916 L54.4717379,19.3758916 L51.7971348,19.3758916 C52.5518814,17.4346363 52.9558076,15.4003868 52.9445427,13.4966869 C52.9533937,9.82877845 51.6796582,6.43448778 49.3566801,3.94420867 C47.0401391,1.45929462 43.8207989,0.0679573473 40.2739726,0 L40.2739726,4.10694864 C45.5000698,4.23570993 49.2633426,8.14504575 49.2504685,13.5065228 C49.2641472,15.6489676 48.4739968,18.1633894 47.141523,20.2360885 C46.7375968,20.8611173 46.6844909,21.6855472 47.0007121,22.3678032 C47.3177378,23.0527417 47.9509847,23.481946 48.6437745,23.481946 L54.4717379,23.481946 L54.4765657,23.481946 C58.8425093,23.481946 61.5766553,25.7871308 63.1038505,27.7221268 C65.1057796,30.2589031 66.2547968,33.7345637 66.2515783,37.2585099 L66.2515783,44.8053521 L69.9472618,44.8053521 L69.9472618,44.8053521 L69.9472618,44.8053521 Z" id="Shape"></path>
                    <rect id="Rectangle-path" x="66.1643836" y="47" width="3.83561644" height="13.6904225"></rect>
                    <path d="M54.5988323,30.4460658 L54.5517036,30.4460658 C54.5517036,30.4460658 52.1759514,30.4419609 49.798654,30.440319 C48.609619,30.4378561 47.4198114,30.4378561 46.5274557,30.440319 C46.0785737,30.440319 45.7054068,30.4419609 45.4434946,30.4419609 C45.3206508,30.4419609 45.186218,30.4419609 45.0440592,30.4518126 L45.0440592,30.4460658 C42.9016329,30.440319 41.7574089,29.1464676 41.1740941,28.061143 C40.1666206,26.1893275 40.154259,23.6287167 41.1424174,21.8381774 C41.4738638,21.2372261 41.4653652,20.4909628 41.1223297,19.8990422 C40.7808395,19.3063006 40.1550316,18.9614925 39.5029552,19.0041831 C36.8258881,19.179871 34.5590729,18.4196512 32.9458792,16.8089047 C31.5451512,15.4091479 30.7416447,13.4576982 30.7400995,11.4528853 C30.7416447,8.84301619 32.1779125,3.94591993 37.5513617,3.77762073 L37.5513617,0.00197183099 C33.4387995,0.0963835778 30.9911953,2.18000978 29.6553658,3.93360536 C28.0916187,5.98603463 27.1946274,8.72643821 27.1930822,11.4512433 C27.1946274,14.4937645 28.4060679,17.4467997 30.5160448,19.555876 C31.8171072,20.8538323 33.9317198,22.3094152 37.0831647,22.7001977 C36.5941074,25.1146755 36.9332799,27.7721609 38.0945012,29.9337795 C39.553947,32.64627 42.0842197,34.2085792 45.0355606,34.2167889 C45.0680099,34.2184308 45.098914,34.2167889 45.1305907,34.214326 C45.6528699,34.2044743 51.0139575,34.2102211 54.554794,34.2167889 C56.6269135,34.2044743 58.2455154,34.7586302 59.2359916,35.8061901 C60.0835363,36.7010493 60.5138758,37.9875119 60.5169662,39.6196037 L60.5169662,44.8073239 L64.0663014,44.8073239 L64.0663014,39.6138569 C64.0601206,36.9785377 63.2558415,34.736464 61.7369053,33.1322852 C60.0750377,31.3737638 57.6058006,30.4460658 54.5988323,30.4460658 L54.5988323,30.4460658 L54.5988323,30.4460658 Z M39.8565048,31.193416 C39.7917329,31.2762293 39.7205901,31.3521414 39.6473236,31.4221384 C39.7205901,31.3491838 39.7927948,31.2742575 39.8565048,31.193416 L39.8565048,31.193416 L39.8565048,31.193416 Z" id="Shape"></path>
                </g>
            </g>
        </g>
    </g>
</svg>