<?xml version="1.0" encoding="UTF-8" standalone="no"?>
<svg width="70px" height="70px" viewBox="0 0 70 70" version="1.1" xmlns="http://www.w3.org/2000/svg" xmlns:xlink="http://www.w3.org/1999/xlink">
    <!-- Generator: Sketch 3.6.1 (26313) - http://www.bohemiancoding.com/sketch -->
    <title>Layer_5_47_</title>
    <desc>Created with Sketch.</desc>
    <defs></defs>
    <g id="Page-2" stroke="none" stroke-width="1" fill="none" fill-rule="evenodd">
        <g id="App-index" transform="translate(-263.000000, -464.000000)">
            <g id="screen"></g>
            <g id="Options" transform="translate(16.000000, 343.000000)" fill="#00ACB4">
                <g id="patient-in-a-stretcher" transform="translate(234.000000, 128.000000)">
                    <g id="Layer_5_47_" transform="translate(13.000000, 0.000000)">
                        <g id="Group">
                            <path d="M61.6319144,4.67395466 C60.167733,4.67395466 58.8997985,5.51624685 58.2789673,6.74080605 C58.2102015,6.87657431 58.1003526,7.16168766 57.6302771,7.16168766 L40.5857179,7.16168766 C40.2036272,7.16168766 40.0643325,6.99047859 39.9872796,6.90848866 C39.0321411,5.8934005 37.6778086,5.25881612 36.1774811,5.25881612 L36.130932,5.25881612 L20.5494962,6.43664987 C20.0734257,6.47896725 20.0402771,6.24392947 20.0147103,6.13125945 C19.2198489,2.63972292 16.0924181,0.0253904282 12.363728,0.0253904282 C8.03607053,0.0253904282 4.51526448,3.54619647 4.51526448,7.8738539 C4.51526448,12.2015113 8.03607053,15.7224937 12.363728,15.7224937 L61.631738,15.7224937 C63.7058186,15.7224937 65.3932242,14.0657683 65.3932242,11.9915113 L65.3932242,8.43561713 C65.3934005,6.3613602 63.705995,4.67395466 61.6319144,4.67395466 L61.6319144,4.67395466 Z" id="Shape"></path>
                            <path d="M65.9898992,20.197733 L3.91858942,20.197733 C1.75793451,20.197733 0,21.9556675 0,24.1163224 L0,29.4842821 C0,31.644937 1.75775819,33.4028715 3.91858942,33.4028715 L24.2464484,33.4028715 C24.6322418,33.4028715 24.8958438,33.6456675 24.8958438,33.6456675 L31.3926196,39.5401259 C31.3926196,39.5401259 31.6417632,39.8270025 31.360529,40.0803778 C28.9137028,42.2833501 22.1125945,48.4699748 22.1125945,48.4699748 C21.6825441,48.8552393 21.194131,48.7535013 20.9382872,48.7349874 C20.8409572,48.7279345 20.7427456,48.7242317 20.6436524,48.7242317 C18.4075315,48.7242317 16.5882368,50.5433501 16.5882368,52.7796474 C16.5882368,55.0157683 18.4075315,56.835063 20.6436524,56.835063 C22.8797733,56.835063 24.699068,55.0157683 24.699068,52.7796474 C24.699068,52.5565995 24.5770529,52.1903778 25.0023426,51.8008816 L34.6567003,43.0417128 C34.6567003,43.0417128 34.9386398,42.7569521 35.2549622,43.0443577 C37.8564232,45.4074307 44.9070277,51.8019395 44.9070277,51.8019395 C45.2362217,52.1170277 45.2094207,52.5565995 45.2094207,52.7796474 C45.2094207,55.0157683 47.0287154,56.835063 49.2648363,56.835063 C51.5009572,56.835063 53.3202519,55.0157683 53.3202519,52.7796474 C53.3202519,50.5433501 51.5009572,48.7242317 49.2648363,48.7242317 C48.9053149,48.7242317 48.3364987,48.8991436 47.9709824,48.6297229 L38.5093451,40.0452897 C38.5093451,40.0452897 38.2261713,39.8097229 38.5112846,39.544534 C40.1623678,38.0085894 44.9512846,33.7013854 44.9512846,33.7013854 C44.9512846,33.7013854 45.2362217,33.4028715 45.7211083,33.4028715 L65.9898992,33.4028715 C68.1505542,33.4028715 69.9084887,31.644937 69.9084887,29.4842821 L69.9084887,24.1163224 C69.9084887,21.9554912 68.1507305,20.197733 65.9898992,20.197733 L65.9898992,20.197733 Z M34.9543325,36.6960453 C34.8148615,36.6960453 34.7381612,36.6235768 34.7381612,36.6235768 L31.4941814,33.6805793 C31.4941814,33.6805793 31.3361965,33.4028715 31.7512594,33.4028715 L38.1399496,33.4028715 C38.7196977,33.4028715 38.4074307,33.6865743 38.4074307,33.6865743 L35.1740302,36.6202267 C35.1742065,36.6200504 35.1013854,36.6960453 34.9543325,36.6960453 L34.9543325,36.6960453 Z" id="Shape"></path>
                        </g>
                    </g>
                </g>
            </g>
        </g>
    </g>
</svg>