<?xml version="1.0" encoding="UTF-8" standalone="no"?>
<svg width="70px" height="70px" viewBox="0 0 70 70" version="1.1" xmlns="http://www.w3.org/2000/svg" xmlns:xlink="http://www.w3.org/1999/xlink">
    <!-- Generator: Sketch 3.8.2 (29753) - http://www.bohemiancoding.com/sketch -->
    <title>running</title>
    <desc>Created with Sketch.</desc>
    <defs></defs>
    <g id="Page-1" stroke="none" stroke-width="1" fill="none" fill-rule="evenodd">
        <g id="running" transform="translate(13.000000, 0.000000)" fill="#00ACB4">
            <g id="XMLID_108_">
                <ellipse id="XMLID_243_" cx="32.467037" cy="6.50374728" rx="6.50191721" ry="6.50191721"></ellipse>
                <path d="M40.7389325,31.6428976 L30.8698475,29.1062745 L27.187146,18.5251416 L32.522549,26.4917211 L34.4528105,21.4361656 C35.3181264,19.1699346 34.1824183,16.631329 31.9161874,15.7660131 L24.598671,12.9721133 C24.2251852,12.8295207 23.3130501,12.544488 22.036122,12.5539434 L9.5340305,14.3339869 C8.5820915,14.4695643 7.75627451,15.0611329 7.32163399,15.918671 C6.88699346,16.7763617 6.89812636,17.7920479 7.35167756,18.6398257 L13.4090414,29.9642702 L10.9796296,36.5956645 C10.6232244,37.3746623 10.5553595,38.2869499 10.8615904,39.158976 L13.0630065,45.429695 L3.87867102,44.4275817 C1.99553377,44.2220044 0.300893246,45.5825054 0.0953159041,47.4665577 C-0.110261438,49.3504575 1.25039216,51.0443355 3.13429194,51.2499129 L17.7324183,52.8426797 C17.8570153,52.8562527 17.9813072,52.862963 18.1049891,52.862963 C19.1449237,52.8628105 20.1372767,52.3898911 20.7921351,51.5648366 C21.5249237,50.6417211 21.7326362,49.407037 21.3422222,48.2949673 L18.2033551,39.3537255 L25.5111111,50.7054684 L20.3338562,65.2875817 C19.6997386,67.073573 20.6335294,69.0352505 22.4193682,69.6693682 C24.207342,70.3040959 26.1677996,69.3675599 26.8010022,67.5838562 L32.5387146,51.4239216 C32.8923747,50.4279085 32.7673203,49.3243791 32.1995425,48.4328322 L27.1644227,40.5248148 L28.3353595,37.4580828 L27.1694553,37.1584096 C24.6303922,36.5058388 23.1634423,34.2752941 23.0120044,32.829085 L21.7579521,20.8502397 L25.8246623,32.5345969 C26.1494989,33.4676253 26.9191939,34.1740305 27.873573,34.4194118 C29.0152288,34.7128322 38.1091285,37.0501307 39.2724401,37.3491939 C40.7522004,37.7295425 42.2891503,36.9128758 42.7899782,35.4587364 C43.3513508,33.8290632 42.405207,32.0712854 40.7389325,31.6428976 L40.7389325,31.6428976 Z M14.532549,19.5734641 L17.5399564,19.1452288 L16.1919608,22.6757298 L14.532549,19.5734641 L14.532549,19.5734641 Z" id="XMLID_1019_"></path>
            </g>
        </g>
    </g>
</svg>