<?xml version="1.0" encoding="UTF-8" standalone="no"?>
<svg width="70px" height="70px" viewBox="0 0 70 70" version="1.1" xmlns="http://www.w3.org/2000/svg" xmlns:xlink="http://www.w3.org/1999/xlink">
    <!-- Generator: Sketch 3.6.1 (26313) - http://www.bohemiancoding.com/sketch -->
    <title>heart-beats</title>
    <desc>Created with Sketch.</desc>
    <defs></defs>
    <g id="Page-2" stroke="none" stroke-width="1" fill="none" fill-rule="evenodd">
        <g id="App-index" transform="translate(-146.000000, -350.000000)">
            <g id="screen"></g>
            <g id="Options" transform="translate(16.000000, 343.000000)" fill="#00ACB4">
                <g id="Sports" transform="translate(117.000000, 11.000000)">
                    <g id="heart-beats" transform="translate(13.000000, 0.000000)">
                        <g id="_x33__63_">
                            <path d="M66.6090356,7.02744235 C63.6156184,3.0939413 58.9058071,0.83427673 52.2028302,0.115199161 C51.6597065,0.0598742138 51.0867925,0.0265618449 50.4980294,0.0265618449 C44.5543396,0.0265618449 38.6333962,2.8148218 34.9486373,7.24448637 C31.2607966,2.8148218 25.3422013,0.0265618449 19.40174,0.0265618449 C18.8132704,0.0265618449 18.2435849,0.0600209644 17.6897484,0.115199161 C10.997044,0.83427673 6.28811321,3.0951153 3.29293501,7.02626834 C0.322997904,10.9232285 -0.645115304,16.2065409 0.417651992,22.7282809 C0.814612159,25.1484906 1.91303983,27.7037107 3.49090147,30.3212998 L13.3893711,30.3212998 L14.4321803,13.7339413 C14.5145073,12.4252201 15.5141719,11.3590776 16.8148218,11.192956 C18.1157652,11.0268344 19.3511111,11.8071069 19.7599581,13.0530189 L27.6300419,37.0401258 L31.998218,19.7069811 C32.3033124,18.4967296 33.3889727,17.646457 34.6369392,17.640587 L34.6501468,17.640587 C35.8926834,17.640587 36.9798113,18.4786792 37.2953249,19.6815933 L40.0815304,30.307065 L42.6078407,26.1915933 C43.0345912,25.4958491 43.75,25.0271279 44.5585954,24.9138365 C45.3671908,24.8005451 46.1837107,25.05413 46.7859748,25.6056184 L49.6743187,28.2516771 L54.811174,28.2516771 C56.3213836,28.2516771 57.54587,29.4760168 57.54587,30.9863732 C57.54587,32.4967296 56.3213836,33.7210692 54.811174,33.7210692 L48.6109644,33.7210692 C47.9274004,33.7210692 47.2681971,33.4645493 46.7636688,33.0025786 L45.5355136,31.8774423 L41.3924528,38.6275262 C40.8195388,39.561153 39.7445912,40.0628931 38.6612788,39.902348 C37.5778197,39.7418029 36.6946751,38.9503774 36.4167296,37.8908386 L34.7032704,31.357065 L30.6266876,47.5310273 C30.3292243,48.7116352 29.2872956,49.5531027 28.0707338,49.5958071 C28.0384486,49.5969811 28.0061635,49.5975681 27.9740252,49.5975681 C26.7963522,49.5975681 25.7457652,48.8415094 25.3762474,47.7153459 L18.9980294,28.2754507 L18.6866247,33.2276939 C18.5959329,34.6684906 17.4009434,35.7908386 15.9572117,35.7908386 L7.35983229,35.7908386 C12.103543,41.7198532 18.4732495,47.7112369 24.0659119,52.9726834 L24.2910273,53.1842977 C27.032327,55.7675472 29.4007338,57.9955136 30.942935,59.6557023 C31.1516143,59.8884486 33.0310482,61.945891 35.0884906,61.945891 C37.1589937,61.945891 38.9977778,59.8577778 39.1637526,59.6577568 C40.8039832,57.8801677 43.4636897,55.360608 46.0911111,52.8761216 C55.8250734,43.6418449 67.9400629,32.1503983 69.4758071,22.7249057 C70.5428302,16.2077149 69.581174,10.9267505 66.6090356,7.02744235 L66.6090356,7.02744235 Z" id="Shape"></path>
                        </g>
                    </g>
                </g>
            </g>
        </g>
    </g>
</svg>