<?xml version="1.0" encoding="UTF-8" standalone="no"?>
<svg width="70px" height="70px" viewBox="0 0 70 70" version="1.1" xmlns="http://www.w3.org/2000/svg" xmlns:xlink="http://www.w3.org/1999/xlink">
    <!-- Generator: Sketch 3.6.1 (26313) - http://www.bohemiancoding.com/sketch -->
    <title>inhaler</title>
    <desc>Created with Sketch.</desc>
    <defs></defs>
    <g id="Page-2" stroke="none" stroke-width="1" fill="none" fill-rule="evenodd">
        <g id="App-index" transform="translate(-263.000000, -350.000000)">
            <g id="screen"></g>
            <g id="Options" transform="translate(16.000000, 343.000000)" fill="#00ACB4">
                <g id="Inhaler" transform="translate(234.000000, 8.000000)">
                    <g id="inhaler" transform="translate(18.000000, 1.000000)">
                        <path d="M57.2181818,45.4193182 L40.1154545,45.4193182 L25.2702273,9.5775 C25.0107955,8.95090909 24.5127273,8.45318182 23.8861364,8.19340909 C23.2595455,7.93397727 22.5552273,7.93397727 21.9289773,8.19375 L19.2456818,9.30579545 L16.0452273,1.57840909 C15.7857955,0.951818182 15.2877273,0.454090909 14.6611364,0.194318182 C14.0345455,-0.0647727273 13.3305682,-0.0651136364 12.7039773,0.194659091 L2.61647727,4.37454545 C1.98988636,4.63431818 1.49215909,5.13204545 1.23272727,5.75863636 C0.973295455,6.38522727 0.973636364,7.08886364 1.23340909,7.71545455 L4.43625,15.4414773 L1.75261364,16.5535227 C0.448295455,17.0938636 -0.171136364,18.5894318 0.369204545,19.8940909 L18.8468182,64.5071591 C19.2426136,65.4627273 20.175,66.0855682 21.2089773,66.0855682 L57.2181818,66.0855682 C58.6302273,66.0855682 59.775,64.9411364 59.775,63.52875 L59.775,47.9761364 C59.775,46.5640909 58.6302273,45.4193182 57.2181818,45.4193182 L57.2181818,45.4193182 Z M12.2993182,5.89772727 L14.5210227,11.26125 L9.15988636,13.4822727 L6.93681818,8.11977273 L12.2993182,5.89772727 L12.2993182,5.89772727 Z M6.07227273,20.2994318 L21.5243182,13.8968182 L36.0446591,48.9545455 C36.4404545,49.9101136 37.3728409,50.5329545 38.4068182,50.5329545 L42.17625,50.5329545 L42.17625,60.9719318 L22.9182955,60.9719318 L6.07227273,20.2994318 L6.07227273,20.2994318 Z M54.6613636,60.9719318 L47.2898864,60.9719318 L47.2898864,50.5329545 L54.6613636,50.5329545 L54.6613636,60.9719318 L54.6613636,60.9719318 Z" id="Shape"></path>
                    </g>
                </g>
            </g>
        </g>
    </g>
</svg>