<?xml version="1.0" encoding="UTF-8" standalone="no"?>
<svg width="100px" height="100px" viewBox="0 0 100 100" version="1.1" xmlns="http://www.w3.org/2000/svg" xmlns:xlink="http://www.w3.org/1999/xlink">
    <!-- Generator: Sketch 3.7.2 (28276) - http://www.bohemiancoding.com/sketch -->
    <title>Icon</title>
    <desc>Created with Sketch.</desc>
    <defs></defs>
    <g id="Visuals" stroke="none" stroke-width="1" fill="none" fill-rule="evenodd">
        <g id="Icon">
            <rect id="square" fill="#00ACB4" x="0" y="0" width="100" height="100" rx="12"></rect>
            <g id="lungs-organ" transform="translate(13.815789, 19.736842)" fill="#FFFFFF">
                <g id="Capa_1">
                    <g id="Group">
                        <path d="M71.2858296,41.8119559 C69.8647981,34.5750365 66.72129,27.6935488 62.6896661,21.553432 C60.8514927,18.7575549 58.6426726,16.1470398 56.2174423,13.837738 C54.3329284,12.0459052 51.660626,9.51262428 48.8647489,9.5666882 L48.7643445,9.5666882 C44.2384219,9.75977363 42.7169087,15.0812082 41.9909074,18.7266612 C41.5506726,20.9201118 41.280353,23.144456 41.1567784,25.384247 C39.836074,23.8859813 39.1641367,21.7465174 39.1641367,19.0047043 L39.1641367,9.72887996 L36.2060678,9.72887996 L33.2479217,9.72887996 L33.2479217,19.0047043 C33.2479217,21.7542409 32.5760616,23.8936275 31.25528,25.384247 C31.1317053,23.144456 30.8536623,20.9201118 30.4211509,18.7266612 C29.6951497,15.0812082 28.1736365,9.75977363 23.6477139,9.5666882 L23.5473094,9.5666882 C20.7437089,9.50490086 18.0714065,12.0459052 16.1946161,13.837738 C13.769463,16.1393164 11.5605656,18.7575549 9.72239229,21.553432 C5.67532158,27.6935488 2.53961411,34.5750365 1.11850531,41.8119559 C0.122184463,46.8938873 -2.06354266,59.5294754 5.94564118,59.9619867 C10.5951385,60.2090589 14.7580604,56.247023 18.6274926,54.2466579 C21.7168595,52.6478332 24.9066309,50.9023409 27.0769112,48.0988176 C29.5561282,44.8935994 30.181725,40.6457198 30.7300876,36.745394 C30.9308965,35.3086839 31.0853648,33.8568359 31.1934927,32.4047562 C32.0121749,32.049479 32.9312616,31.5474569 33.8503483,30.8447031 C34.62269,30.2499228 35.4490184,29.477581 36.2059906,28.4735368 C36.9628855,29.477581 37.7815677,30.2577234 38.5616329,30.8447031 C39.4806423,31.5475341 40.3998062,32.0495563 41.2184112,32.4047562 C41.3188156,33.8568359 41.473284,35.3087612 41.6818163,36.745394 C42.2302561,40.6457198 42.8634991,44.8935994 45.3349927,48.0988176 C47.4975496,50.9023409 50.6950444,52.6556339 53.7844113,54.2466579 C57.6538435,56.247023 61.8244889,60.2090589 66.4662627,59.9619867 C74.4679548,59.5295526 72.2822277,46.8938873 71.2858296,41.8119559 L71.2858296,41.8119559 Z" id="Shape"></path>
                        <path d="M39.1642139,6.56227883 L39.1642139,2.39163343 C39.1642139,1.10954614 38.129276,0.0746082121 36.8471887,0.0746082121 L36.206145,0.0746082121 L35.5650242,0.0746082121 C34.2829369,0.0746082121 33.2479989,1.10954614 33.2479989,2.39163343 L33.2479989,6.56227883 L36.206145,6.56227883 L39.1642139,6.56227883 L39.1642139,6.56227883 Z" id="Shape"></path>
                    </g>
                </g>
            </g>
        </g>
    </g>
</svg>