<?xml version="1.0" encoding="UTF-8" standalone="no"?>
<svg width="70px" height="70px" viewBox="0 0 70 70" version="1.1" xmlns="http://www.w3.org/2000/svg" xmlns:xlink="http://www.w3.org/1999/xlink">
    <!-- Generator: Sketch 3.6.1 (26313) - http://www.bohemiancoding.com/sketch -->
    <title>lungs-with-bronchi-</title>
    <desc>Created with Sketch.</desc>
    <defs></defs>
    <g id="Page-2" stroke="none" stroke-width="1" fill="none" fill-rule="evenodd">
        <g id="App-index" transform="translate(-28.000000, -343.000000)">
            <g id="screen"></g>
            <g id="Options" transform="translate(16.000000, 343.000000)" fill="#00ACB4">
                <g id="EPOC">
                    <g id="lungs-with-bronchi-" transform="translate(12.000000, 1.000000)">
                        <path d="M66.4835096,27.4477404 C60.9925481,15.4444231 54.1645192,8.27817308 48.2182212,8.27817308 C47.0225,8.27817308 45.9253846,8.58004808 44.9581731,9.17538462 C40.1456731,12.1372596 39.9259135,21.3876923 39.9171635,22.4090865 C39.90875,22.7287981 39.8427885,25.2817788 39.7879327,28.8396635 L37.8434135,28.1245192 L37.8434135,1.36668269 C37.8434135,0.623269231 37.2406731,0.0205288462 36.4972596,0.0205288462 L33.7733173,0.0205288462 C33.0299038,0.0205288462 32.4271635,0.623269231 32.4271635,1.36668269 L32.4271635,28.1245192 L30.4826442,28.8396635 C30.428125,25.2891827 30.3621635,22.7449519 30.35375,22.4326442 C30.3446635,21.3876923 30.1252404,12.1369231 25.3124038,9.17504808 C24.3451923,8.57971154 23.2484135,8.27783654 22.0523558,8.27783654 C16.1063942,8.27783654 9.27802885,15.4440865 3.78706731,27.4474038 C-3.48216346,43.3377404 2.94740385,65.0135096 3.22471154,65.9285577 C3.40004808,66.5067308 3.93177885,66.8846635 4.51230769,66.8846635 C4.615625,66.8846635 4.720625,66.8725481 4.82528846,66.8476442 C5.06322115,66.7911058 10.7190865,65.4348558 16.6098558,63.2840385 C25.0223077,60.2127885 29.3757692,57.1957212 29.9189423,54.0601923 C30.5866346,50.2075 30.6095192,39.5792788 30.5206731,31.6938462 L34.1946635,30.3423077 L36.0759135,30.3423077 L39.7499038,31.6938462 C39.6610577,39.5843269 39.6839423,50.2085096 40.3516346,54.0601923 C40.8951442,57.1957212 45.2486058,60.2127885 53.6607212,63.2840385 C59.5514904,65.4348558 65.2073558,66.7907692 65.4452885,66.8476442 C65.5499519,66.8725481 65.6549519,66.8846635 65.7582692,66.8846635 C66.3387981,66.8846635 66.8705288,66.5067308 67.0458654,65.9285577 C67.3228365,65.0138462 73.7524038,43.3380769 66.4835096,27.4477404 L66.4835096,27.4477404 Z M26.6215385,33.4879327 L17.0342308,38.4414423 L17.0342308,42.4644231 L17.7658654,44.7000481 L19.5993269,46.4749519 C20.1334135,46.9922115 20.1472115,47.8443269 19.6302885,48.3784135 C19.3661058,48.6513462 19.0147596,48.7883173 18.6627404,48.7883173 C18.3255288,48.7883173 17.9879808,48.6624519 17.7264904,48.409375 L15.7510096,46.4971635 L13.5116827,48.9683654 C13.2458173,49.2618269 12.8806731,49.4105769 12.5138462,49.4105769 C12.1914423,49.4105769 11.8680288,49.2954808 11.6102404,49.0619231 C11.0593269,48.5628365 11.0172596,47.7113942 11.5163462,47.1604808 L14.34125,44.0427885 L14.34125,39.8326923 L9.051875,42.5657212 C8.85432692,42.6676923 8.64331731,42.7161538 8.435,42.7161538 C7.94735577,42.7161538 7.47721154,42.450625 7.23793269,41.9875481 C6.89668269,41.3272596 7.15548077,40.5151923 7.81610577,40.1736058 L8.995,39.5644712 L6.88692308,37.883125 C6.30572115,37.4197115 6.21014423,36.5726442 6.67389423,35.9914423 C7.13730769,35.4102404 7.98471154,35.315 8.56557692,35.7784135 L11.6152885,38.2105769 L18.9912019,34.3996154 L12.6666346,29.6062981 C12.0739904,29.1573558 11.9578846,28.3129808 12.4068269,27.7203365 C12.8557692,27.1280288 13.7004808,27.0115865 14.2927885,27.4605288 L16.3345673,29.0079327 L16.506875,27.4477404 C16.5886538,26.7090385 17.2529808,26.1786538 17.9926923,26.2574038 C18.7317308,26.3391827 19.2644712,27.0041827 19.1830288,27.7432212 L18.834375,30.9023077 L21.6424519,33.0302404 L25.3861058,31.0961538 C26.0470673,30.7552404 26.8587981,31.0137019 27.2000481,31.6743269 C27.5409615,32.3346154 27.2821635,33.1466827 26.6215385,33.4879327 L26.6215385,33.4879327 Z M63.3833173,37.8834615 L61.2752404,39.5648077 L62.4537981,40.1739423 C63.1144231,40.5151923 63.3732212,41.3272596 63.0319712,41.9878846 C62.7926923,42.450625 62.3222115,42.7164904 61.8349038,42.7164904 C61.6269231,42.7164904 61.4155769,42.6680288 61.2180288,42.5660577 L55.9286538,39.8330288 L55.9286538,44.0437981 L58.7535577,47.1614904 C59.2526442,47.7124038 59.2105769,48.5638462 58.6596635,49.0629327 C58.401875,49.2964904 58.0784615,49.4115865 57.7560577,49.4115865 C57.3892308,49.4115865 57.02375,49.2625 56.7582212,48.969375 L54.5188942,46.4978365 L52.5434135,48.4100481 C52.2822596,48.663125 51.944375,48.7889904 51.6075,48.7889904 C51.2554808,48.7889904 50.9041346,48.6520192 50.6399519,48.3790865 C50.1226923,47.845 50.1368269,46.9925481 50.6709135,46.475625 L52.504375,44.7007212 L53.2360096,42.4647596 L53.2360096,38.4421154 L43.6487019,33.4882692 C42.9880769,33.1470192 42.7292788,32.3349519 43.0705288,31.6743269 C43.4117788,31.0137019 44.2241827,30.7549038 44.8844712,31.0961538 L48.628125,33.0305769 L51.4362019,30.9026442 L51.0872115,27.7435577 C51.0057692,27.0045192 51.5385096,26.3395192 52.2775481,26.2577404 C53.01625,26.1783173 53.6819231,26.7090385 53.7633654,27.4480769 L53.9356731,29.0082692 L55.9774519,27.4608654 C56.5700962,27.0122596 57.4144712,27.1280288 57.8634135,27.7206731 C58.3123558,28.3133173 58.19625,29.1576923 57.6036058,29.6066346 L51.2783654,34.4002885 L58.6539423,38.21125 L61.7039904,35.77875 C62.2855288,35.3156731 63.1322596,35.4109135 63.5960096,35.9917788 C64.0600962,36.5729808 63.9645192,37.4200481 63.3833173,37.8834615 L63.3833173,37.8834615 Z" id="Shape"></path>
                    </g>
                </g>
            </g>
        </g>
    </g>
</svg>