<?xml version="1.0" encoding="UTF-8" standalone="no"?>
<svg width="70px" height="70px" viewBox="0 0 70 70" version="1.1" xmlns="http://www.w3.org/2000/svg" xmlns:xlink="http://www.w3.org/1999/xlink">
    <!-- Generator: Sketch 3.8.1 (29687) - http://www.bohemiancoding.com/sketch -->
    <title>Shape</title>
    <desc>Created with Sketch.</desc>
    <defs></defs>
    <g id="Page-1" stroke="none" stroke-width="1" fill="none" fill-rule="evenodd">
        <path d="M69.141085,11.7854122 L58.2556497,0.857120889 C57.1128219,-0.285706963 55.270012,-0.285706963 54.1271841,0.857120889 C52.9843563,1.99994874 52.9843563,3.84275865 54.1271841,4.9855865 L57.5128116,8.38549936 L50.5558471,15.3424639 L44.2702939,9.04262538 C43.127466,7.89979752 41.2846561,7.89979752 40.1418283,9.04262538 C38.9990004,10.1854532 38.9990004,12.0282631 40.1418283,13.171091 L41.7132166,14.7424793 L13.2282324,43.2131781 C10.1997386,46.2416719 9.62832465,50.7844127 11.4854199,54.4128911 L0.857120889,65.0269048 C-0.285706963,66.1697326 -0.285706963,68.0125425 0.857120889,69.1553704 C1.42853481,69.7267843 3.41419821,70.7267587 4.9855865,69.1553704 L15.5996002,58.5413567 C16.9424229,59.2413388 22.3137138,61.2841435 26.7850278,56.8128296 L55.270012,28.3421307 L56.8414003,29.913519 C58.5270713,31.5991901 60.398452,30.4849329 60.9698659,29.913519 C62.1126937,28.7706912 62.1126937,26.9278813 60.9698659,25.7850534 L54.6843127,19.4709295 L61.6412772,12.513965 L65.0269048,15.8995925 C66.6554344,17.5281222 68.5839564,16.4710064 69.1553704,15.8995925 C70.2839129,14.77105 70.2839129,12.9282401 69.141085,11.7854122 L69.141085,11.7854122 Z M22.6565622,52.684364 C21.2423127,54.0986134 18.7709475,54.1128988 17.3424126,52.6700786 C15.8710218,51.1986878 15.8853071,48.8130346 17.3424126,47.3416438 L27.0993054,37.584751 L32.4134549,42.9131858 L22.6565622,52.684364 L22.6565622,52.684364 Z M36.5419206,38.7990056 L31.227771,33.4705707 L45.8273968,18.8709449 L51.1415464,24.1993798 L36.5419206,38.7990056 L36.5419206,38.7990056 Z" id="Shape" fill="#00ACB4"></path>
    </g>
</svg>