<?xml version="1.0" encoding="UTF-8" standalone="no"?>
<svg width="24px" height="24px" viewBox="0 0 24 24" version="1.1" xmlns="http://www.w3.org/2000/svg" xmlns:xlink="http://www.w3.org/1999/xlink">
    <!-- Generator: Sketch 3.6.1 (26313) - http://www.bohemiancoding.com/sketch -->
    <title>Group 2</title>
    <desc>Created with Sketch.</desc>
    <defs></defs>
    <g id="Page-3" stroke="none" stroke-width="1" fill="none" fill-rule="evenodd">
        <g id="Group-2" transform="translate(0.000000, -5.000000)">
            <path d="M4,13 L8,13 L8,9 L4,9 L4,13 L4,13 Z M10,25 L14,25 L14,21 L10,21 L10,25 L10,25 Z M4,25 L8,25 L8,21 L4,21 L4,25 L4,25 Z M4,19 L8,19 L8,15 L4,15 L4,19 L4,19 Z M10,19 L14,19 L14,15 L10,15 L10,19 L10,19 Z M16,9 L16,13 L20,13 L20,9 L16,9 L16,9 Z M10,13 L14,13 L14,9 L10,9 L10,13 L10,13 Z M16,19 L20,19 L20,15 L16,15 L16,19 L16,19 Z M16,25 L20,25 L20,21 L16,21 L16,25 L16,25 Z" id="Shape" fill="#FFFFFF"></path>
            <rect id="icon_bounds" x="0" y="0" width="24" height="24"></rect>
        </g>
    </g>
</svg>